<svg version="1.1" xmlns="http://www.w3.org/2000/svg" viewBox="0 0 261.5500510251927 427.8666715618315" width="261.5500510251927" height="427.8666715618315">
  <!-- svg-source:excalidraw -->
  
  <defs>
    <style class="style-fonts">
      @font-face {
        font-family: "Virgil";
        src: url("https://excalidraw.com/Virgil.woff2");
      }
      @font-face {
        font-family: "Cascadia";
        src: url("https://excalidraw.com/Cascadia.woff2");
      }
      @font-face {
        font-family: "Assistant";
        src: url("https://excalidraw.com/Assistant-Regular.woff2");
      }
    </style>
    
  </defs>
  <rect x="0" y="0" width="261.5500510251927" height="427.8666715618315" fill="#ffffff"></rect><g stroke-linecap="round" transform="translate(10.000000551082849 315.1678704335761) rotate(0 51.34940056412756 51.34940056412768)"><path d="M102.7 51.35 C102.7 53.58, 102.55 55.84, 102.26 58.05 C101.97 60.27, 101.53 62.48, 100.95 64.64 C100.37 66.8, 99.65 68.94, 98.79 71 C97.94 73.06, 96.94 75.09, 95.82 77.02 C94.7 78.96, 93.45 80.84, 92.09 82.61 C90.73 84.38, 89.24 86.08, 87.66 87.66 C86.08 89.24, 84.38 90.73, 82.61 92.09 C80.84 93.45, 78.96 94.7, 77.02 95.82 C75.09 96.94, 73.06 97.94, 71 98.79 C68.94 99.65, 66.8 100.37, 64.64 100.95 C62.48 101.53, 60.27 101.97, 58.05 102.26 C55.84 102.55, 53.58 102.7, 51.35 102.7 C49.12 102.7, 46.86 102.55, 44.65 102.26 C42.43 101.97, 40.22 101.53, 38.06 100.95 C35.9 100.37, 33.76 99.65, 31.7 98.79 C29.63 97.94, 27.61 96.94, 25.67 95.82 C23.74 94.7, 21.86 93.45, 20.09 92.09 C18.32 90.73, 16.62 89.24, 15.04 87.66 C13.46 86.08, 11.97 84.38, 10.61 82.61 C9.25 80.84, 8 78.96, 6.88 77.02 C5.76 75.09, 4.76 73.06, 3.91 71 C3.05 68.94, 2.33 66.8, 1.75 64.64 C1.17 62.48, 0.73 60.27, 0.44 58.05 C0.15 55.84, 0 53.58, 0 51.35 C0 49.12, 0.15 46.86, 0.44 44.65 C0.73 42.43, 1.17 40.22, 1.75 38.06 C2.33 35.9, 3.05 33.76, 3.91 31.7 C4.76 29.63, 5.76 27.61, 6.88 25.67 C8 23.74, 9.25 21.86, 10.61 20.09 C11.97 18.32, 13.46 16.62, 15.04 15.04 C16.62 13.46, 18.32 11.97, 20.09 10.61 C21.86 9.25, 23.74 8, 25.67 6.88 C27.61 5.76, 29.63 4.76, 31.7 3.91 C33.76 3.05, 35.9 2.33, 38.06 1.75 C40.22 1.17, 42.43 0.73, 44.65 0.44 C46.86 0.15, 49.12 0, 51.35 0 C53.58 0, 55.84 0.15, 58.05 0.44 C60.27 0.73, 62.48 1.17, 64.64 1.75 C66.8 2.33, 68.94 3.05, 71 3.91 C73.06 4.76, 75.09 5.76, 77.02 6.88 C78.96 8, 80.84 9.25, 82.61 10.61 C84.38 11.97, 86.08 13.46, 87.66 15.04 C89.24 16.62, 90.73 18.32, 92.09 20.09 C93.45 21.86, 94.7 23.74, 95.82 25.67 C96.94 27.61, 97.94 29.63, 98.79 31.7 C99.65 33.76, 100.37 35.9, 100.95 38.06 C101.53 40.22, 101.97 42.43, 102.26 44.65 C102.55 46.86, 102.63 50.23, 102.7 51.35 C102.77 52.47, 102.77 50.23, 102.7 51.35" stroke="#1e1e1e" stroke-width="2" fill="none"></path></g><g transform="translate(32.956557797335336 343.4462231874063) rotate(0 28.58333396911621 23.261538461538407)"><text x="28.58333396911621" y="18.71826923076923" font-family="Cascadia, Segoe UI Emoji" font-size="19.384615384615383px" fill="#1e1e1e" text-anchor="middle" style="white-space: pre;" direction="ltr" dominant-baseline="alphabetic">count</text><text x="28.58333396911621" y="41.97980769230769" font-family="Cascadia, Segoe UI Emoji" font-size="19.384615384615383px" fill="#1e1e1e" text-anchor="middle" style="white-space: pre;" direction="ltr" dominant-baseline="alphabetic">int</text></g><g stroke-linecap="round" transform="translate(10 156.7498244169783) rotate(0 50.80888055818923 50.808880558189344)"><path d="M101.62 50.81 C101.62 53.02, 101.47 55.25, 101.18 57.44 C100.89 59.63, 100.46 61.82, 99.89 63.96 C99.31 66.09, 98.6 68.21, 97.75 70.25 C96.9 72.29, 95.92 74.3, 94.81 76.21 C93.71 78.13, 92.46 79.99, 91.12 81.74 C89.77 83.49, 88.3 85.17, 86.74 86.74 C85.17 88.3, 83.49 89.77, 81.74 91.12 C79.99 92.46, 78.13 93.71, 76.21 94.81 C74.3 95.92, 72.29 96.9, 70.25 97.75 C68.21 98.6, 66.09 99.31, 63.96 99.89 C61.82 100.46, 59.63 100.89, 57.44 101.18 C55.25 101.47, 53.02 101.62, 50.81 101.62 C48.6 101.62, 46.37 101.47, 44.18 101.18 C41.99 100.89, 39.79 100.46, 37.66 99.89 C35.52 99.31, 33.41 98.6, 31.37 97.75 C29.32 96.9, 27.32 95.92, 25.4 94.81 C23.49 93.71, 21.63 92.46, 19.88 91.12 C18.12 89.77, 16.44 88.3, 14.88 86.74 C13.32 85.17, 11.85 83.49, 10.5 81.74 C9.15 79.99, 7.91 78.13, 6.81 76.21 C5.7 74.3, 4.71 72.29, 3.87 70.25 C3.02 68.21, 2.3 66.09, 1.73 63.96 C1.16 61.82, 0.72 59.63, 0.43 57.44 C0.15 55.25, 0 53.02, 0 50.81 C0 48.6, 0.15 46.37, 0.43 44.18 C0.72 41.99, 1.16 39.79, 1.73 37.66 C2.3 35.52, 3.02 33.41, 3.87 31.37 C4.71 29.32, 5.7 27.32, 6.81 25.4 C7.91 23.49, 9.15 21.63, 10.5 19.88 C11.85 18.12, 13.32 16.44, 14.88 14.88 C16.44 13.32, 18.12 11.85, 19.88 10.5 C21.63 9.15, 23.49 7.91, 25.4 6.81 C27.32 5.7, 29.32 4.71, 31.37 3.87 C33.41 3.02, 35.52 2.3, 37.66 1.73 C39.79 1.16, 41.99 0.72, 44.18 0.43 C46.37 0.15, 48.6 0, 50.81 0 C53.02 0, 55.25 0.15, 57.44 0.43 C59.63 0.72, 61.82 1.16, 63.96 1.73 C66.09 2.3, 68.21 3.02, 70.25 3.87 C72.29 4.71, 74.3 5.7, 76.21 6.81 C78.13 7.91, 79.99 9.15, 81.74 10.5 C83.49 11.85, 85.17 13.32, 86.74 14.88 C88.3 16.44, 89.77 18.12, 91.12 19.88 C92.46 21.63, 93.71 23.49, 94.81 25.4 C95.92 27.32, 96.9 29.32, 97.75 31.37 C98.6 33.41, 99.31 35.52, 99.89 37.66 C100.46 39.79, 100.89 41.99, 101.18 44.18 C101.47 46.37, 101.55 49.7, 101.62 50.81 C101.69 51.91, 101.69 49.7, 101.62 50.81" stroke="#1e1e1e" stroke-width="2" fill="none"></path></g><g transform="translate(33.04824260188025 184.73909329566686) rotate(0 27.83333396911621 22.892307692307668)"><text x="27.83333396911621" y="18.421153846153846" font-family="Cascadia, Segoe UI Emoji" font-size="19.076923076923077px" fill="#1e1e1e" text-anchor="middle" style="white-space: pre;" direction="ltr" dominant-baseline="alphabetic">count</text><text x="27.83333396911621" y="41.31346153846154" font-family="Cascadia, Segoe UI Emoji" font-size="19.076923076923077px" fill="#1e1e1e" text-anchor="middle" style="white-space: pre;" direction="ltr" dominant-baseline="alphabetic">ui</text></g><g stroke-linecap="round"><g transform="translate(57.697099326686384 312.99071014610627) rotate(0 0.3332498098338874 -22.790623825713965)"><path d="M0 0 C0.11 -7.6, 0.56 -37.98, 0.67 -45.58 M0 0 C0.11 -7.6, 0.56 -37.98, 0.67 -45.58" stroke="#1e1e1e" stroke-width="2" fill="none"></path></g><g transform="translate(57.697099326686384 312.99071014610627) rotate(0 0.3332498098338874 -22.790623825713965)"><path d="M8.15 -24.05 C5.28 -32.31, 2.41 -40.56, 0.67 -45.58 M8.15 -24.05 C5.52 -31.6, 2.9 -39.16, 0.67 -45.58" stroke="#1e1e1e" stroke-width="2" fill="none"></path></g><g transform="translate(57.697099326686384 312.99071014610627) rotate(0 0.3332498098338874 -22.790623825713965)"><path d="M-7.44 -24.28 C-4.33 -32.45, -1.22 -40.62, 0.67 -45.58 M-7.44 -24.28 C-4.6 -31.75, -1.75 -39.23, 0.67 -45.58" stroke="#1e1e1e" stroke-width="2" fill="none"></path></g></g><mask></mask><g stroke-linecap="round" transform="translate(142.4274024831061 151.58546499999966) rotate(0 54.56132427104353 53.39106041817081)"><path d="M109.12 53.39 C109.12 55.71, 108.97 58.06, 108.66 60.36 C108.35 62.66, 107.88 64.97, 107.26 67.21 C106.65 69.45, 105.88 71.68, 104.97 73.82 C104.06 75.97, 103 78.07, 101.81 80.09 C100.63 82.1, 99.29 84.05, 97.85 85.89 C96.4 87.74, 94.82 89.5, 93.14 91.14 C91.46 92.79, 89.66 94.33, 87.78 95.75 C85.89 97.16, 83.9 98.47, 81.84 99.63 C79.79 100.79, 77.63 101.83, 75.44 102.72 C73.25 103.61, 70.98 104.36, 68.68 104.96 C66.39 105.56, 64.04 106.02, 61.68 106.33 C59.33 106.63, 56.94 106.78, 54.56 106.78 C52.19 106.78, 49.79 106.63, 47.44 106.33 C45.09 106.02, 42.73 105.56, 40.44 104.96 C38.15 104.36, 35.87 103.61, 33.68 102.72 C31.49 101.83, 29.34 100.79, 27.28 99.63 C25.22 98.47, 23.23 97.16, 21.35 95.75 C19.46 94.33, 17.66 92.79, 15.98 91.14 C14.3 89.5, 12.72 87.74, 11.27 85.89 C9.83 84.05, 8.5 82.1, 7.31 80.09 C6.12 78.07, 5.06 75.97, 4.15 73.82 C3.24 71.68, 2.47 69.45, 1.86 67.21 C1.24 64.97, 0.78 62.66, 0.47 60.36 C0.16 58.06, 0 55.71, 0 53.39 C0 51.07, 0.16 48.73, 0.47 46.42 C0.78 44.12, 1.24 41.82, 1.86 39.57 C2.47 37.33, 3.24 35.11, 4.15 32.96 C5.06 30.81, 6.12 28.71, 7.31 26.7 C8.5 24.68, 9.83 22.73, 11.27 20.89 C12.72 19.05, 14.3 17.28, 15.98 15.64 C17.66 14, 19.46 12.45, 21.35 11.03 C23.23 9.62, 25.22 8.31, 27.28 7.15 C29.34 5.99, 31.49 4.95, 33.68 4.06 C35.87 3.18, 38.15 2.42, 40.44 1.82 C42.73 1.22, 45.09 0.76, 47.44 0.46 C49.79 0.15, 52.19 0, 54.56 0 C56.94 0, 59.33 0.15, 61.68 0.46 C64.04 0.76, 66.39 1.22, 68.68 1.82 C70.98 2.42, 73.25 3.18, 75.44 4.06 C77.63 4.95, 79.79 5.99, 81.84 7.15 C83.9 8.31, 85.89 9.62, 87.78 11.03 C89.66 12.45, 91.46 14, 93.14 15.64 C94.82 17.28, 96.4 19.05, 97.85 20.89 C99.29 22.73, 100.63 24.68, 101.81 26.7 C103 28.71, 104.06 30.81, 104.97 32.96 C105.88 35.11, 106.65 37.33, 107.26 39.57 C107.88 41.82, 108.35 44.12, 108.66 46.42 C108.97 48.73, 109.04 52.23, 109.12 53.39 C109.2 54.55, 109.2 52.23, 109.12 53.39" stroke="#1e1e1e" stroke-width="2" fill="none"></path></g><g transform="translate(164.0663771962836 186.02334454174115) rotate(0 32.84166717529297 19.200000000000045)"><text x="32.84166717529297" y="15.45" font-family="Cascadia, Segoe UI Emoji" font-size="16px" fill="#1e1e1e" text-anchor="middle" style="white-space: pre;" direction="ltr" dominant-baseline="alphabetic">button </text><text x="32.84166717529297" y="34.65" font-family="Cascadia, Segoe UI Emoji" font-size="16px" fill="#1e1e1e" text-anchor="middle" style="white-space: pre;" direction="ltr" dominant-baseline="alphabetic">ui</text></g><g stroke-linecap="round" transform="translate(76.48396148310621 10) rotate(0 54.56132427104353 53.39106041817081)"><path d="M109.12 53.39 C109.12 55.71, 108.97 58.06, 108.66 60.36 C108.35 62.66, 107.88 64.97, 107.26 67.21 C106.65 69.45, 105.88 71.68, 104.97 73.82 C104.06 75.97, 103 78.07, 101.81 80.09 C100.63 82.1, 99.29 84.05, 97.85 85.89 C96.4 87.74, 94.82 89.5, 93.14 91.14 C91.46 92.79, 89.66 94.33, 87.78 95.75 C85.89 97.16, 83.9 98.47, 81.84 99.63 C79.79 100.79, 77.63 101.83, 75.44 102.72 C73.25 103.61, 70.98 104.36, 68.68 104.96 C66.39 105.56, 64.04 106.02, 61.68 106.33 C59.33 106.63, 56.94 106.78, 54.56 106.78 C52.19 106.78, 49.79 106.63, 47.44 106.33 C45.09 106.02, 42.73 105.56, 40.44 104.96 C38.15 104.36, 35.87 103.61, 33.68 102.72 C31.49 101.83, 29.34 100.79, 27.28 99.63 C25.22 98.47, 23.23 97.16, 21.35 95.75 C19.46 94.33, 17.66 92.79, 15.98 91.14 C14.3 89.5, 12.72 87.74, 11.27 85.89 C9.83 84.05, 8.5 82.1, 7.31 80.09 C6.12 78.07, 5.06 75.97, 4.15 73.82 C3.24 71.68, 2.47 69.45, 1.86 67.21 C1.24 64.97, 0.78 62.66, 0.47 60.36 C0.16 58.06, 0 55.71, 0 53.39 C0 51.07, 0.16 48.73, 0.47 46.42 C0.78 44.12, 1.24 41.82, 1.86 39.57 C2.47 37.33, 3.24 35.11, 4.15 32.96 C5.06 30.81, 6.12 28.71, 7.31 26.7 C8.5 24.68, 9.83 22.73, 11.27 20.89 C12.72 19.05, 14.3 17.28, 15.98 15.64 C17.66 14, 19.46 12.45, 21.35 11.03 C23.23 9.62, 25.22 8.31, 27.28 7.15 C29.34 5.99, 31.49 4.95, 33.68 4.06 C35.87 3.18, 38.15 2.42, 40.44 1.82 C42.73 1.22, 45.09 0.76, 47.44 0.46 C49.79 0.15, 52.19 0, 54.56 0 C56.94 0, 59.33 0.15, 61.68 0.46 C64.04 0.76, 66.39 1.22, 68.68 1.82 C70.98 2.42, 73.25 3.18, 75.44 4.06 C77.63 4.95, 79.79 5.99, 81.84 7.15 C83.9 8.31, 85.89 9.62, 87.78 11.03 C89.66 12.45, 91.46 14, 93.14 15.64 C94.82 17.28, 96.4 19.05, 97.85 20.89 C99.29 22.73, 100.63 24.68, 101.81 26.7 C103 28.71, 104.06 30.81, 104.97 32.96 C105.88 35.11, 106.65 37.33, 107.26 39.57 C107.88 41.82, 108.35 44.12, 108.66 46.42 C108.97 48.73, 109.04 52.23, 109.12 53.39 C109.2 54.55, 109.2 52.23, 109.12 53.39" stroke="#1e1e1e" stroke-width="2" fill="none"></path></g><g transform="translate(112.19793695922317 54.03787954174152) rotate(0 18.766666412353516 9.600000000000023)"><text x="18.766666412353516" y="15.45" font-family="Cascadia, Segoe UI Emoji" font-size="16px" fill="#1e1e1e" text-anchor="middle" style="white-space: pre;" direction="ltr" dominant-baseline="alphabetic">vbox</text></g><g stroke-linecap="round"><g transform="translate(76.48396146765344 151.58546505526488) rotate(0 12.431960136578255 -16.756120184083784)"><path d="M0 0 C4.14 -5.59, 20.72 -27.93, 24.86 -33.51 M0 0 C4.14 -5.59, 20.72 -27.93, 24.86 -33.51" stroke="#1e1e1e" stroke-width="2" fill="none"></path></g><g transform="translate(76.48396146765344 151.58546505526488) rotate(0 12.431960136578255 -16.756120184083784)"><path d="M18.91 -13.51 C20.87 -20.09, 22.83 -26.67, 24.86 -33.51 M18.91 -13.51 C20.63 -19.28, 22.34 -25.04, 24.86 -33.51" stroke="#1e1e1e" stroke-width="2" fill="none"></path></g><g transform="translate(76.48396146765344 151.58546505526488) rotate(0 12.431960136578255 -16.756120184083784)"><path d="M7.45 -22.02 C13.18 -25.8, 18.91 -29.58, 24.86 -33.51 M7.45 -22.02 C12.47 -25.33, 17.48 -28.64, 24.86 -33.51" stroke="#1e1e1e" stroke-width="2" fill="none"></path></g></g><mask></mask><g stroke-linecap="round"><g transform="translate(175.88311351277343 142.9285260433885) rotate(0 -7.026760077196286 -14.0535201543928)"><path d="M0 0 C-2.34 -4.68, -11.71 -23.42, -14.05 -28.11 M0 0 C-2.34 -4.68, -11.71 -23.42, -14.05 -28.11" stroke="#1e1e1e" stroke-width="2" fill="none"></path></g><g transform="translate(175.88311351277343 142.9285260433885) rotate(0 -7.026760077196286 -14.0535201543928)"><path d="M-2.64 -17.3 C-6.09 -20.57, -9.54 -23.83, -14.05 -28.11 M-2.64 -17.3 C-5.59 -20.09, -8.54 -22.89, -14.05 -28.11" stroke="#1e1e1e" stroke-width="2" fill="none"></path></g><g transform="translate(175.88311351277343 142.9285260433885) rotate(0 -7.026760077196286 -14.0535201543928)"><path d="M-12.26 -12.5 C-12.8 -17.21, -13.34 -21.93, -14.05 -28.11 M-12.26 -12.5 C-12.72 -16.53, -13.19 -20.56, -14.05 -28.11" stroke="#1e1e1e" stroke-width="2" fill="none"></path></g></g><mask></mask></svg>