<svg version="1.1" xmlns="http://www.w3.org/2000/svg" viewBox="0 0 169.1835224109036 227.56424082419142" width="169.1835224109036" height="227.56424082419142">
  <!-- svg-source:excalidraw -->
  
  <defs>
    <style class="style-fonts">
      @font-face {
        font-family: "Virgil";
        src: url("https://excalidraw.com/Virgil.woff2");
      }
      @font-face {
        font-family: "Cascadia";
        src: url("https://excalidraw.com/Cascadia.woff2");
      }
      @font-face {
        font-family: "Assistant";
        src: url("https://excalidraw.com/Assistant-Regular.woff2");
      }
    </style>
    
  </defs>
  <rect x="0" y="0" width="169.1835224109036" height="227.56424082419142" fill="#ffffff"></rect><g stroke-linecap="round" transform="translate(10 129.9999998622053) rotate(0 43.78212048099306 43.78212048099306)"><path d="M87.56 43.78 C87.56 45.86, 87.41 47.96, 87.12 50.01 C86.82 52.07, 86.38 54.12, 85.79 56.12 C85.21 58.11, 84.47 60.08, 83.61 61.97 C82.74 63.86, 81.74 65.71, 80.61 67.45 C79.49 69.2, 78.23 70.88, 76.87 72.45 C75.51 74.02, 74.02 75.51, 72.45 76.87 C70.88 78.23, 69.2 79.49, 67.45 80.61 C65.71 81.74, 63.86 82.74, 61.97 83.61 C60.08 84.47, 58.11 85.21, 56.12 85.79 C54.12 86.38, 52.07 86.82, 50.01 87.12 C47.96 87.41, 45.86 87.56, 43.78 87.56 C41.71 87.56, 39.61 87.41, 37.55 87.12 C35.5 86.82, 33.44 86.38, 31.45 85.79 C29.45 85.21, 27.48 84.47, 25.59 83.61 C23.71 82.74, 21.86 81.74, 20.11 80.61 C18.36 79.49, 16.68 78.23, 15.11 76.87 C13.54 75.51, 12.05 74.02, 10.69 72.45 C9.33 70.88, 8.07 69.2, 6.95 67.45 C5.83 65.71, 4.82 63.86, 3.96 61.97 C3.09 60.08, 2.36 58.11, 1.77 56.12 C1.19 54.12, 0.74 52.07, 0.45 50.01 C0.15 47.96, 0 45.86, 0 43.78 C0 41.71, 0.15 39.61, 0.45 37.55 C0.74 35.5, 1.19 33.44, 1.77 31.45 C2.36 29.45, 3.09 27.48, 3.96 25.59 C4.82 23.71, 5.83 21.86, 6.95 20.11 C8.07 18.36, 9.33 16.68, 10.69 15.11 C12.05 13.54, 13.54 12.05, 15.11 10.69 C16.68 9.33, 18.36 8.07, 20.11 6.95 C21.86 5.83, 23.71 4.82, 25.59 3.96 C27.48 3.09, 29.45 2.36, 31.45 1.77 C33.44 1.19, 35.5 0.74, 37.55 0.45 C39.61 0.15, 41.71 0, 43.78 0 C45.86 0, 47.96 0.15, 50.01 0.45 C52.07 0.74, 54.12 1.19, 56.12 1.77 C58.11 2.36, 60.08 3.09, 61.97 3.96 C63.86 4.82, 65.71 5.83, 67.45 6.95 C69.2 8.07, 70.88 9.33, 72.45 10.69 C74.02 12.05, 75.51 13.54, 76.87 15.11 C78.23 16.68, 79.49 18.36, 80.61 20.11 C81.74 21.86, 82.74 23.71, 83.61 25.59 C84.47 27.48, 85.21 29.45, 85.79 31.45 C86.38 33.44, 86.82 35.5, 87.12 37.55 C87.41 39.61, 87.49 42.74, 87.56 43.78 C87.64 44.82, 87.64 42.74, 87.56 43.78" stroke="#1e1e1e" stroke-width="2" fill="none"></path></g><g transform="translate(30.36515222504022 154.62348605636168) rotate(0 23.45833396911621 19.200000000000045)"><text x="23.45833396911621" y="15.45" font-family="Cascadia, Segoe UI Emoji" font-size="16px" fill="#1e1e1e" text-anchor="middle" style="white-space: pre;" direction="ltr" dominant-baseline="alphabetic">count</text><text x="23.45833396911621" y="34.65" font-family="Cascadia, Segoe UI Emoji" font-size="16px" fill="#1e1e1e" text-anchor="middle" style="white-space: pre;" direction="ltr" dominant-baseline="alphabetic">int</text></g><g stroke-linecap="round" transform="translate(71.61928144891772 10.000000000000114) rotate(0 43.78212048099306 43.78212048099306)"><path d="M87.56 43.78 C87.56 45.86, 87.41 47.96, 87.12 50.01 C86.82 52.07, 86.38 54.12, 85.79 56.12 C85.21 58.11, 84.47 60.08, 83.61 61.97 C82.74 63.86, 81.74 65.71, 80.61 67.45 C79.49 69.2, 78.23 70.88, 76.87 72.45 C75.51 74.02, 74.02 75.51, 72.45 76.87 C70.88 78.23, 69.2 79.49, 67.45 80.61 C65.71 81.74, 63.86 82.74, 61.97 83.61 C60.08 84.47, 58.11 85.21, 56.12 85.79 C54.12 86.38, 52.07 86.82, 50.01 87.12 C47.96 87.41, 45.86 87.56, 43.78 87.56 C41.71 87.56, 39.61 87.41, 37.55 87.12 C35.5 86.82, 33.44 86.38, 31.45 85.79 C29.45 85.21, 27.48 84.47, 25.59 83.61 C23.71 82.74, 21.86 81.74, 20.11 80.61 C18.36 79.49, 16.68 78.23, 15.11 76.87 C13.54 75.51, 12.05 74.02, 10.69 72.45 C9.33 70.88, 8.07 69.2, 6.95 67.45 C5.83 65.71, 4.82 63.86, 3.96 61.97 C3.09 60.08, 2.36 58.11, 1.77 56.12 C1.19 54.12, 0.74 52.07, 0.45 50.01 C0.15 47.96, 0 45.86, 0 43.78 C0 41.71, 0.15 39.61, 0.45 37.55 C0.74 35.5, 1.19 33.44, 1.77 31.45 C2.36 29.45, 3.09 27.48, 3.96 25.59 C4.82 23.71, 5.83 21.86, 6.95 20.11 C8.07 18.36, 9.33 16.68, 10.69 15.11 C12.05 13.54, 13.54 12.05, 15.11 10.69 C16.68 9.33, 18.36 8.07, 20.11 6.95 C21.86 5.83, 23.71 4.82, 25.59 3.96 C27.48 3.09, 29.45 2.36, 31.45 1.77 C33.44 1.19, 35.5 0.74, 37.55 0.45 C39.61 0.15, 41.71 0, 43.78 0 C45.86 0, 47.96 0.15, 50.01 0.45 C52.07 0.74, 54.12 1.19, 56.12 1.77 C58.11 2.36, 60.08 3.09, 61.97 3.96 C63.86 4.82, 65.71 5.83, 67.45 6.95 C69.2 8.07, 70.88 9.33, 72.45 10.69 C74.02 12.05, 75.51 13.54, 76.87 15.11 C78.23 16.68, 79.49 18.36, 80.61 20.11 C81.74 21.86, 82.74 23.71, 83.61 25.59 C84.47 27.48, 85.21 29.45, 85.79 31.45 C86.38 33.44, 86.82 35.5, 87.12 37.55 C87.41 39.61, 87.49 42.74, 87.56 43.78 C87.64 44.82, 87.64 42.74, 87.56 43.78" stroke="#1e1e1e" stroke-width="2" fill="none"></path></g><g transform="translate(91.98443367395794 34.6234861941565) rotate(0 23.45833396911621 19.200000000000045)"><text x="23.45833396911621" y="15.45" font-family="Cascadia, Segoe UI Emoji" font-size="16px" fill="#1e1e1e" text-anchor="middle" style="white-space: pre;" direction="ltr" dominant-baseline="alphabetic">count</text><text x="23.45833396911621" y="34.65" font-family="Cascadia, Segoe UI Emoji" font-size="16px" fill="#1e1e1e" text-anchor="middle" style="white-space: pre;" direction="ltr" dominant-baseline="alphabetic">ui</text></g><g stroke-linecap="round"><g transform="translate(59.45757938598217 124.19311754748162) rotate(0 9.188840100949164 -17.296640190022003)"><path d="M0 0 C3.06 -5.77, 15.31 -28.83, 18.38 -34.59 M0 0 C3.06 -5.77, 15.31 -28.83, 18.38 -34.59" stroke="#1e1e1e" stroke-width="2" fill="none"></path></g><g transform="translate(59.45757938598217 124.19311754748162) rotate(0 9.188840100949164 -17.296640190022003)"><path d="M15.66 -15.2 C16.34 -20.06, 17.02 -24.93, 18.38 -34.59 M15.66 -15.2 C16.66 -22.31, 17.65 -29.42, 18.38 -34.59" stroke="#1e1e1e" stroke-width="2" fill="none"></path></g><g transform="translate(59.45757938598217 124.19311754748162) rotate(0 9.188840100949164 -17.296640190022003)"><path d="M3.83 -21.48 C7.48 -24.77, 11.13 -28.06, 18.38 -34.59 M3.83 -21.48 C9.16 -26.29, 14.5 -31.1, 18.38 -34.59" stroke="#1e1e1e" stroke-width="2" fill="none"></path></g></g><mask></mask></svg>