
<svg version="1.1" xmlns="http://www.w3.org/2000/svg" viewBox="0 0 603.5749129125602 556.5809580208378" width="603.5749129125602" height="556.5809580208378">
  <!-- svg-source:excalidraw -->
  
  <defs>
    <style class="style-fonts">
      @font-face {
        font-family: "Virgil";
        src: url("https://excalidraw.com/Virgil.woff2");
      }
      @font-face {
        font-family: "Cascadia";
        src: url("https://excalidraw.com/Cascadia.woff2");
      }
      @font-face {
        font-family: "Assistant";
        src: url("https://excalidraw.com/Assistant-Regular.woff2");
      }
    </style>
    
  </defs>
  <rect x="0" y="0" width="603.5749129125602" height="556.5809580208378" fill="#f5faff"></rect><g stroke-linecap="round" transform="translate(257.2879014287173 94.30455039499151) rotate(0 43.782120480992944 43.782120480993015)"><path d="M87.56 43.78 C87.56 45.86, 87.41 47.96, 87.12 50.01 C86.82 52.07, 86.38 54.12, 85.79 56.12 C85.21 58.11, 84.47 60.08, 83.61 61.97 C82.74 63.86, 81.74 65.71, 80.61 67.45 C79.49 69.2, 78.23 70.88, 76.87 72.45 C75.51 74.02, 74.02 75.51, 72.45 76.87 C70.88 78.23, 69.2 79.49, 67.45 80.61 C65.71 81.74, 63.86 82.74, 61.97 83.61 C60.08 84.47, 58.11 85.21, 56.12 85.79 C54.12 86.38, 52.07 86.82, 50.01 87.12 C47.96 87.41, 45.86 87.56, 43.78 87.56 C41.71 87.56, 39.61 87.41, 37.55 87.12 C35.5 86.82, 33.44 86.38, 31.45 85.79 C29.45 85.21, 27.48 84.47, 25.59 83.61 C23.71 82.74, 21.86 81.74, 20.11 80.61 C18.36 79.49, 16.68 78.23, 15.11 76.87 C13.54 75.51, 12.05 74.02, 10.69 72.45 C9.33 70.88, 8.07 69.2, 6.95 67.45 C5.83 65.71, 4.82 63.86, 3.96 61.97 C3.09 60.08, 2.36 58.11, 1.77 56.12 C1.19 54.12, 0.74 52.07, 0.45 50.01 C0.15 47.96, 0 45.86, 0 43.78 C0 41.71, 0.15 39.61, 0.45 37.55 C0.74 35.5, 1.19 33.44, 1.77 31.45 C2.36 29.45, 3.09 27.48, 3.96 25.59 C4.82 23.71, 5.83 21.86, 6.95 20.11 C8.07 18.36, 9.33 16.68, 10.69 15.11 C12.05 13.54, 13.54 12.05, 15.11 10.69 C16.68 9.33, 18.36 8.07, 20.11 6.95 C21.86 5.83, 23.71 4.82, 25.59 3.96 C27.48 3.09, 29.45 2.36, 31.45 1.77 C33.44 1.19, 35.5 0.74, 37.55 0.45 C39.61 0.15, 41.71 0, 43.78 0 C45.86 0, 47.96 0.15, 50.01 0.45 C52.07 0.74, 54.12 1.19, 56.12 1.77 C58.11 2.36, 60.08 3.09, 61.97 3.96 C63.86 4.82, 65.71 5.83, 67.45 6.95 C69.2 8.07, 70.88 9.33, 72.45 10.69 C74.02 12.05, 75.51 13.54, 76.87 15.11 C78.23 16.68, 79.49 18.36, 80.61 20.11 C81.74 21.86, 82.74 23.71, 83.61 25.59 C84.47 27.48, 85.21 29.45, 85.79 31.45 C86.38 33.44, 86.82 35.5, 87.12 37.55 C87.41 39.61, 87.49 42.74, 87.56 43.78 C87.64 44.82, 87.64 42.74, 87.56 43.78" stroke="#f08c00" stroke-width="2" fill="none"></path></g><g transform="translate(282.3447212105202 128.52803658914794) rotate(0 18.766666412353516 9.599999999999994)"><text x="18.766666412353516" y="15.45" font-family="Cascadia, Segoe UI Emoji" font-size="16px" fill="#f08c00" text-anchor="middle" style="white-space: pre;" direction="ltr" dominant-baseline="alphabetic">root</text></g><g stroke-linecap="round" transform="translate(257.2879016009256 219.0167174698031) rotate(0 43.782120480992944 43.782120480993)"><path d="M87.56 43.78 C87.56 45.86, 87.41 47.96, 87.12 50.01 C86.82 52.07, 86.38 54.12, 85.79 56.12 C85.21 58.11, 84.47 60.08, 83.61 61.97 C82.74 63.86, 81.74 65.71, 80.61 67.45 C79.49 69.2, 78.23 70.88, 76.87 72.45 C75.51 74.02, 74.02 75.51, 72.45 76.87 C70.88 78.23, 69.2 79.49, 67.45 80.61 C65.71 81.74, 63.86 82.74, 61.97 83.61 C60.08 84.47, 58.11 85.21, 56.12 85.79 C54.12 86.38, 52.07 86.82, 50.01 87.12 C47.96 87.41, 45.86 87.56, 43.78 87.56 C41.71 87.56, 39.61 87.41, 37.55 87.12 C35.5 86.82, 33.44 86.38, 31.45 85.79 C29.45 85.21, 27.48 84.47, 25.59 83.61 C23.71 82.74, 21.86 81.74, 20.11 80.61 C18.36 79.49, 16.68 78.23, 15.11 76.87 C13.54 75.51, 12.05 74.02, 10.69 72.45 C9.33 70.88, 8.07 69.2, 6.95 67.45 C5.83 65.71, 4.82 63.86, 3.96 61.97 C3.09 60.08, 2.36 58.11, 1.77 56.12 C1.19 54.12, 0.74 52.07, 0.45 50.01 C0.15 47.96, 0 45.86, 0 43.78 C0 41.71, 0.15 39.61, 0.45 37.55 C0.74 35.5, 1.19 33.44, 1.77 31.45 C2.36 29.45, 3.09 27.48, 3.96 25.59 C4.82 23.71, 5.83 21.86, 6.95 20.11 C8.07 18.36, 9.33 16.68, 10.69 15.11 C12.05 13.54, 13.54 12.05, 15.11 10.69 C16.68 9.33, 18.36 8.07, 20.11 6.95 C21.86 5.83, 23.71 4.82, 25.59 3.96 C27.48 3.09, 29.45 2.36, 31.45 1.77 C33.44 1.19, 35.5 0.74, 37.55 0.45 C39.61 0.15, 41.71 0, 43.78 0 C45.86 0, 47.96 0.15, 50.01 0.45 C52.07 0.74, 54.12 1.19, 56.12 1.77 C58.11 2.36, 60.08 3.09, 61.97 3.96 C63.86 4.82, 65.71 5.83, 67.45 6.95 C69.2 8.07, 70.88 9.33, 72.45 10.69 C74.02 12.05, 75.51 13.54, 76.87 15.11 C78.23 16.68, 79.49 18.36, 80.61 20.11 C81.74 21.86, 82.74 23.71, 83.61 25.59 C84.47 27.48, 85.21 29.45, 85.79 31.45 C86.38 33.44, 86.82 35.5, 87.12 37.55 C87.41 39.61, 87.49 42.74, 87.56 43.78 C87.64 44.82, 87.64 42.74, 87.56 43.78" stroke="#f08c00" stroke-width="2" fill="none"></path></g><g stroke-linecap="round" transform="translate(257.2879017078121 339.01671672869844) rotate(0 43.782120480992944 43.78212048099303)"><path d="M87.56 43.78 C87.56 45.86, 87.41 47.96, 87.12 50.01 C86.82 52.07, 86.38 54.12, 85.79 56.12 C85.21 58.11, 84.47 60.08, 83.61 61.97 C82.74 63.86, 81.74 65.71, 80.61 67.45 C79.49 69.2, 78.23 70.88, 76.87 72.45 C75.51 74.02, 74.02 75.51, 72.45 76.87 C70.88 78.23, 69.2 79.49, 67.45 80.61 C65.71 81.74, 63.86 82.74, 61.97 83.61 C60.08 84.47, 58.11 85.21, 56.12 85.79 C54.12 86.38, 52.07 86.82, 50.01 87.12 C47.96 87.41, 45.86 87.56, 43.78 87.56 C41.71 87.56, 39.61 87.41, 37.55 87.12 C35.5 86.82, 33.44 86.38, 31.45 85.79 C29.45 85.21, 27.48 84.47, 25.59 83.61 C23.71 82.74, 21.86 81.74, 20.11 80.61 C18.36 79.49, 16.68 78.23, 15.11 76.87 C13.54 75.51, 12.05 74.02, 10.69 72.45 C9.33 70.88, 8.07 69.2, 6.95 67.45 C5.83 65.71, 4.82 63.86, 3.96 61.97 C3.09 60.08, 2.36 58.11, 1.77 56.12 C1.19 54.12, 0.74 52.07, 0.45 50.01 C0.15 47.96, 0 45.86, 0 43.78 C0 41.71, 0.15 39.61, 0.45 37.55 C0.74 35.5, 1.19 33.44, 1.77 31.45 C2.36 29.45, 3.09 27.48, 3.96 25.59 C4.82 23.71, 5.83 21.86, 6.95 20.11 C8.07 18.36, 9.33 16.68, 10.69 15.11 C12.05 13.54, 13.54 12.05, 15.11 10.69 C16.68 9.33, 18.36 8.07, 20.11 6.95 C21.86 5.83, 23.71 4.82, 25.59 3.96 C27.48 3.09, 29.45 2.36, 31.45 1.77 C33.44 1.19, 35.5 0.74, 37.55 0.45 C39.61 0.15, 41.71 0, 43.78 0 C45.86 0, 47.96 0.15, 50.01 0.45 C52.07 0.74, 54.12 1.19, 56.12 1.77 C58.11 2.36, 60.08 3.09, 61.97 3.96 C63.86 4.82, 65.71 5.83, 67.45 6.95 C69.2 8.07, 70.88 9.33, 72.45 10.69 C74.02 12.05, 75.51 13.54, 76.87 15.11 C78.23 16.68, 79.49 18.36, 80.61 20.11 C81.74 21.86, 82.74 23.71, 83.61 25.59 C84.47 27.48, 85.21 29.45, 85.79 31.45 C86.38 33.44, 86.82 35.5, 87.12 37.55 C87.41 39.61, 87.49 42.74, 87.56 43.78 C87.64 44.82, 87.64 42.74, 87.56 43.78" stroke="#1e1e1e" stroke-width="2" fill="none"></path></g><g stroke-linecap="round" transform="translate(257.28790183845285 459.0167170588518) rotate(0 43.782120480992944 43.782120480993)"><path d="M87.56 43.78 C87.56 45.86, 87.41 47.96, 87.12 50.01 C86.82 52.07, 86.38 54.12, 85.79 56.12 C85.21 58.11, 84.47 60.08, 83.61 61.97 C82.74 63.86, 81.74 65.71, 80.61 67.45 C79.49 69.2, 78.23 70.88, 76.87 72.45 C75.51 74.02, 74.02 75.51, 72.45 76.87 C70.88 78.23, 69.2 79.49, 67.45 80.61 C65.71 81.74, 63.86 82.74, 61.97 83.61 C60.08 84.47, 58.11 85.21, 56.12 85.79 C54.12 86.38, 52.07 86.82, 50.01 87.12 C47.96 87.41, 45.86 87.56, 43.78 87.56 C41.71 87.56, 39.61 87.41, 37.55 87.12 C35.5 86.82, 33.44 86.38, 31.45 85.79 C29.45 85.21, 27.48 84.47, 25.59 83.61 C23.71 82.74, 21.86 81.74, 20.11 80.61 C18.36 79.49, 16.68 78.23, 15.11 76.87 C13.54 75.51, 12.05 74.02, 10.69 72.45 C9.33 70.88, 8.07 69.2, 6.95 67.45 C5.83 65.71, 4.82 63.86, 3.96 61.97 C3.09 60.08, 2.36 58.11, 1.77 56.12 C1.19 54.12, 0.74 52.07, 0.45 50.01 C0.15 47.96, 0 45.86, 0 43.78 C0 41.71, 0.15 39.61, 0.45 37.55 C0.74 35.5, 1.19 33.44, 1.77 31.45 C2.36 29.45, 3.09 27.48, 3.96 25.59 C4.82 23.71, 5.83 21.86, 6.95 20.11 C8.07 18.36, 9.33 16.68, 10.69 15.11 C12.05 13.54, 13.54 12.05, 15.11 10.69 C16.68 9.33, 18.36 8.07, 20.11 6.95 C21.86 5.83, 23.71 4.82, 25.59 3.96 C27.48 3.09, 29.45 2.36, 31.45 1.77 C33.44 1.19, 35.5 0.74, 37.55 0.45 C39.61 0.15, 41.71 0, 43.78 0 C45.86 0, 47.96 0.15, 50.01 0.45 C52.07 0.74, 54.12 1.19, 56.12 1.77 C58.11 2.36, 60.08 3.09, 61.97 3.96 C63.86 4.82, 65.71 5.83, 67.45 6.95 C69.2 8.07, 70.88 9.33, 72.45 10.69 C74.02 12.05, 75.51 13.54, 76.87 15.11 C78.23 16.68, 79.49 18.36, 80.61 20.11 C81.74 21.86, 82.74 23.71, 83.61 25.59 C84.47 27.48, 85.21 29.45, 85.79 31.45 C86.38 33.44, 86.82 35.5, 87.12 37.55 C87.41 39.61, 87.49 42.74, 87.56 43.78 C87.64 44.82, 87.64 42.74, 87.56 43.78" stroke="#1e1e1e" stroke-width="2" fill="none"></path></g><g stroke-linecap="round" transform="translate(378.9049035248963 339.0167176574401) rotate(0 43.782120480992944 43.78212048099303)"><path d="M87.56 43.78 C87.56 45.86, 87.41 47.96, 87.12 50.01 C86.82 52.07, 86.38 54.12, 85.79 56.12 C85.21 58.11, 84.47 60.08, 83.61 61.97 C82.74 63.86, 81.74 65.71, 80.61 67.45 C79.49 69.2, 78.23 70.88, 76.87 72.45 C75.51 74.02, 74.02 75.51, 72.45 76.87 C70.88 78.23, 69.2 79.49, 67.45 80.61 C65.71 81.74, 63.86 82.74, 61.97 83.61 C60.08 84.47, 58.11 85.21, 56.12 85.79 C54.12 86.38, 52.07 86.82, 50.01 87.12 C47.96 87.41, 45.86 87.56, 43.78 87.56 C41.71 87.56, 39.61 87.41, 37.55 87.12 C35.5 86.82, 33.44 86.38, 31.45 85.79 C29.45 85.21, 27.48 84.47, 25.59 83.61 C23.71 82.74, 21.86 81.74, 20.11 80.61 C18.36 79.49, 16.68 78.23, 15.11 76.87 C13.54 75.51, 12.05 74.02, 10.69 72.45 C9.33 70.88, 8.07 69.2, 6.95 67.45 C5.83 65.71, 4.82 63.86, 3.96 61.97 C3.09 60.08, 2.36 58.11, 1.77 56.12 C1.19 54.12, 0.74 52.07, 0.45 50.01 C0.15 47.96, 0 45.86, 0 43.78 C0 41.71, 0.15 39.61, 0.45 37.55 C0.74 35.5, 1.19 33.44, 1.77 31.45 C2.36 29.45, 3.09 27.48, 3.96 25.59 C4.82 23.71, 5.83 21.86, 6.95 20.11 C8.07 18.36, 9.33 16.68, 10.69 15.11 C12.05 13.54, 13.54 12.05, 15.11 10.69 C16.68 9.33, 18.36 8.07, 20.11 6.95 C21.86 5.83, 23.71 4.82, 25.59 3.96 C27.48 3.09, 29.45 2.36, 31.45 1.77 C33.44 1.19, 35.5 0.74, 37.55 0.45 C39.61 0.15, 41.71 0, 43.78 0 C45.86 0, 47.96 0.15, 50.01 0.45 C52.07 0.74, 54.12 1.19, 56.12 1.77 C58.11 2.36, 60.08 3.09, 61.97 3.96 C63.86 4.82, 65.71 5.83, 67.45 6.95 C69.2 8.07, 70.88 9.33, 72.45 10.69 C74.02 12.05, 75.51 13.54, 76.87 15.11 C78.23 16.68, 79.49 18.36, 80.61 20.11 C81.74 21.86, 82.74 23.71, 83.61 25.59 C84.47 27.48, 85.21 29.45, 85.79 31.45 C86.38 33.44, 86.82 35.5, 87.12 37.55 C87.41 39.61, 87.49 42.74, 87.56 43.78 C87.64 44.82, 87.64 42.74, 87.56 43.78" stroke="#1e1e1e" stroke-width="2" fill="none"></path></g><g stroke-linecap="round" transform="translate(133.64395104512096 459.01671638189896) rotate(0 43.782120480992944 43.782120480993)"><path d="M87.56 43.78 C87.56 45.86, 87.41 47.96, 87.12 50.01 C86.82 52.07, 86.38 54.12, 85.79 56.12 C85.21 58.11, 84.47 60.08, 83.61 61.97 C82.74 63.86, 81.74 65.71, 80.61 67.45 C79.49 69.2, 78.23 70.88, 76.87 72.45 C75.51 74.02, 74.02 75.51, 72.45 76.87 C70.88 78.23, 69.2 79.49, 67.45 80.61 C65.71 81.74, 63.86 82.74, 61.97 83.61 C60.08 84.47, 58.11 85.21, 56.12 85.79 C54.12 86.38, 52.07 86.82, 50.01 87.12 C47.96 87.41, 45.86 87.56, 43.78 87.56 C41.71 87.56, 39.61 87.41, 37.55 87.12 C35.5 86.82, 33.44 86.38, 31.45 85.79 C29.45 85.21, 27.48 84.47, 25.59 83.61 C23.71 82.74, 21.86 81.74, 20.11 80.61 C18.36 79.49, 16.68 78.23, 15.11 76.87 C13.54 75.51, 12.05 74.02, 10.69 72.45 C9.33 70.88, 8.07 69.2, 6.95 67.45 C5.83 65.71, 4.82 63.86, 3.96 61.97 C3.09 60.08, 2.36 58.11, 1.77 56.12 C1.19 54.12, 0.74 52.07, 0.45 50.01 C0.15 47.96, 0 45.86, 0 43.78 C0 41.71, 0.15 39.61, 0.45 37.55 C0.74 35.5, 1.19 33.44, 1.77 31.45 C2.36 29.45, 3.09 27.48, 3.96 25.59 C4.82 23.71, 5.83 21.86, 6.95 20.11 C8.07 18.36, 9.33 16.68, 10.69 15.11 C12.05 13.54, 13.54 12.05, 15.11 10.69 C16.68 9.33, 18.36 8.07, 20.11 6.95 C21.86 5.83, 23.71 4.82, 25.59 3.96 C27.48 3.09, 29.45 2.36, 31.45 1.77 C33.44 1.19, 35.5 0.74, 37.55 0.45 C39.61 0.15, 41.71 0, 43.78 0 C45.86 0, 47.96 0.15, 50.01 0.45 C52.07 0.74, 54.12 1.19, 56.12 1.77 C58.11 2.36, 60.08 3.09, 61.97 3.96 C63.86 4.82, 65.71 5.83, 67.45 6.95 C69.2 8.07, 70.88 9.33, 72.45 10.69 C74.02 12.05, 75.51 13.54, 76.87 15.11 C78.23 16.68, 79.49 18.36, 80.61 20.11 C81.74 21.86, 82.74 23.71, 83.61 25.59 C84.47 27.48, 85.21 29.45, 85.79 31.45 C86.38 33.44, 86.82 35.5, 87.12 37.55 C87.41 39.61, 87.49 42.74, 87.56 43.78 C87.64 44.82, 87.64 42.74, 87.56 43.78" stroke="#1e1e1e" stroke-width="2" fill="none"></path></g><g stroke-linecap="round" transform="translate(10 459.016716866445) rotate(0 43.782120480992944 43.782120480993)"><path d="M87.56 43.78 C87.56 45.86, 87.41 47.96, 87.12 50.01 C86.82 52.07, 86.38 54.12, 85.79 56.12 C85.21 58.11, 84.47 60.08, 83.61 61.97 C82.74 63.86, 81.74 65.71, 80.61 67.45 C79.49 69.2, 78.23 70.88, 76.87 72.45 C75.51 74.02, 74.02 75.51, 72.45 76.87 C70.88 78.23, 69.2 79.49, 67.45 80.61 C65.71 81.74, 63.86 82.74, 61.97 83.61 C60.08 84.47, 58.11 85.21, 56.12 85.79 C54.12 86.38, 52.07 86.82, 50.01 87.12 C47.96 87.41, 45.86 87.56, 43.78 87.56 C41.71 87.56, 39.61 87.41, 37.55 87.12 C35.5 86.82, 33.44 86.38, 31.45 85.79 C29.45 85.21, 27.48 84.47, 25.59 83.61 C23.71 82.74, 21.86 81.74, 20.11 80.61 C18.36 79.49, 16.68 78.23, 15.11 76.87 C13.54 75.51, 12.05 74.02, 10.69 72.45 C9.33 70.88, 8.07 69.2, 6.95 67.45 C5.83 65.71, 4.82 63.86, 3.96 61.97 C3.09 60.08, 2.36 58.11, 1.77 56.12 C1.19 54.12, 0.74 52.07, 0.45 50.01 C0.15 47.96, 0 45.86, 0 43.78 C0 41.71, 0.15 39.61, 0.45 37.55 C0.74 35.5, 1.19 33.44, 1.77 31.45 C2.36 29.45, 3.09 27.48, 3.96 25.59 C4.82 23.71, 5.83 21.86, 6.95 20.11 C8.07 18.36, 9.33 16.68, 10.69 15.11 C12.05 13.54, 13.54 12.05, 15.11 10.69 C16.68 9.33, 18.36 8.07, 20.11 6.95 C21.86 5.83, 23.71 4.82, 25.59 3.96 C27.48 3.09, 29.45 2.36, 31.45 1.77 C33.44 1.19, 35.5 0.74, 37.55 0.45 C39.61 0.15, 41.71 0, 43.78 0 C45.86 0, 47.96 0.15, 50.01 0.45 C52.07 0.74, 54.12 1.19, 56.12 1.77 C58.11 2.36, 60.08 3.09, 61.97 3.96 C63.86 4.82, 65.71 5.83, 67.45 6.95 C69.2 8.07, 70.88 9.33, 72.45 10.69 C74.02 12.05, 75.51 13.54, 76.87 15.11 C78.23 16.68, 79.49 18.36, 80.61 20.11 C81.74 21.86, 82.74 23.71, 83.61 25.59 C84.47 27.48, 85.21 29.45, 85.79 31.45 C86.38 33.44, 86.82 35.5, 87.12 37.55 C87.41 39.61, 87.49 42.74, 87.56 43.78 C87.64 44.82, 87.64 42.74, 87.56 43.78" stroke="#e03131" stroke-width="2" fill="none"></path></g><g stroke-linecap="round" transform="translate(71.61928144891772 339.01671700423987) rotate(0 43.782120480992944 43.78212048099303)"><path d="M87.56 43.78 C87.56 45.86, 87.41 47.96, 87.12 50.01 C86.82 52.07, 86.38 54.12, 85.79 56.12 C85.21 58.11, 84.47 60.08, 83.61 61.97 C82.74 63.86, 81.74 65.71, 80.61 67.45 C79.49 69.2, 78.23 70.88, 76.87 72.45 C75.51 74.02, 74.02 75.51, 72.45 76.87 C70.88 78.23, 69.2 79.49, 67.45 80.61 C65.71 81.74, 63.86 82.74, 61.97 83.61 C60.08 84.47, 58.11 85.21, 56.12 85.79 C54.12 86.38, 52.07 86.82, 50.01 87.12 C47.96 87.41, 45.86 87.56, 43.78 87.56 C41.71 87.56, 39.61 87.41, 37.55 87.12 C35.5 86.82, 33.44 86.38, 31.45 85.79 C29.45 85.21, 27.48 84.47, 25.59 83.61 C23.71 82.74, 21.86 81.74, 20.11 80.61 C18.36 79.49, 16.68 78.23, 15.11 76.87 C13.54 75.51, 12.05 74.02, 10.69 72.45 C9.33 70.88, 8.07 69.2, 6.95 67.45 C5.83 65.71, 4.82 63.86, 3.96 61.97 C3.09 60.08, 2.36 58.11, 1.77 56.12 C1.19 54.12, 0.74 52.07, 0.45 50.01 C0.15 47.96, 0 45.86, 0 43.78 C0 41.71, 0.15 39.61, 0.45 37.55 C0.74 35.5, 1.19 33.44, 1.77 31.45 C2.36 29.45, 3.09 27.48, 3.96 25.59 C4.82 23.71, 5.83 21.86, 6.95 20.11 C8.07 18.36, 9.33 16.68, 10.69 15.11 C12.05 13.54, 13.54 12.05, 15.11 10.69 C16.68 9.33, 18.36 8.07, 20.11 6.95 C21.86 5.83, 23.71 4.82, 25.59 3.96 C27.48 3.09, 29.45 2.36, 31.45 1.77 C33.44 1.19, 35.5 0.74, 37.55 0.45 C39.61 0.15, 41.71 0, 43.78 0 C45.86 0, 47.96 0.15, 50.01 0.45 C52.07 0.74, 54.12 1.19, 56.12 1.77 C58.11 2.36, 60.08 3.09, 61.97 3.96 C63.86 4.82, 65.71 5.83, 67.45 6.95 C69.2 8.07, 70.88 9.33, 72.45 10.69 C74.02 12.05, 75.51 13.54, 76.87 15.11 C78.23 16.68, 79.49 18.36, 80.61 20.11 C81.74 21.86, 82.74 23.71, 83.61 25.59 C84.47 27.48, 85.21 29.45, 85.79 31.45 C86.38 33.44, 86.82 35.5, 87.12 37.55 C87.41 39.61, 87.49 42.74, 87.56 43.78 C87.64 44.82, 87.64 42.74, 87.56 43.78" stroke="#f08c00" stroke-width="2" fill="none"></path></g><g stroke-linecap="round"><g transform="translate(115.67166000355337 332.1333532215677) rotate(0 63.78136070070582 -33.512240368167426)"><path d="M0 0 C8.29 -8.29, 28.47 -38.56, 49.73 -49.73 C70.99 -60.9, 114.59 -64.14, 127.56 -67.02 M0 0 C8.29 -8.29, 28.47 -38.56, 49.73 -49.73 C70.99 -60.9, 114.59 -64.14, 127.56 -67.02" stroke="#f08c00" stroke-width="2" fill="none"></path></g><g transform="translate(115.67166000355337 332.1333532215677) rotate(0 63.78136070070582 -33.512240368167426)"><path d="M105.67 -54.95 C114.15 -59.62, 122.63 -64.3, 127.56 -67.02 M105.67 -54.95 C111.83 -58.35, 117.99 -61.74, 127.56 -67.02" stroke="#f08c00" stroke-width="2" fill="none"></path></g><g transform="translate(115.67166000355337 332.1333532215677) rotate(0 63.78136070070582 -33.512240368167426)"><path d="M103.03 -71.84 C112.53 -69.98, 122.03 -68.11, 127.56 -67.02 M103.03 -71.84 C109.94 -70.49, 116.84 -69.13, 127.56 -67.02" stroke="#f08c00" stroke-width="2" fill="none"></path></g></g><mask></mask><g stroke-linecap="round"><g transform="translate(59.45757938598126 453.2098345517213) rotate(0 9.188840100949164 -17.296640190021918)"><path d="M0 0 C3.06 -5.77, 15.31 -28.83, 18.38 -34.59 M0 0 C3.06 -5.77, 15.31 -28.83, 18.38 -34.59" stroke="#f08c00" stroke-width="2" fill="none"></path></g><g transform="translate(59.45757938598126 453.2098345517213) rotate(0 9.188840100949164 -17.296640190021918)"><path d="M15.66 -15.2 C16.47 -20.98, 17.28 -26.76, 18.38 -34.59 M15.66 -15.2 C16.42 -20.59, 17.17 -25.99, 18.38 -34.59" stroke="#f08c00" stroke-width="2" fill="none"></path></g><g transform="translate(59.45757938598126 453.2098345517213) rotate(0 9.188840100949164 -17.296640190021918)"><path d="M3.83 -21.48 C8.17 -25.39, 12.5 -29.3, 18.38 -34.59 M3.83 -21.48 C7.88 -25.13, 11.93 -28.78, 18.38 -34.59" stroke="#f08c00" stroke-width="2" fill="none"></path></g></g><mask></mask><g stroke-linecap="round"><g transform="translate(164.31846053798927 448.8856745042159) rotate(0 -7.567280083134619 -14.053520154392828)"><path d="M0 0 C-2.52 -4.68, -12.61 -23.42, -15.13 -28.11 M0 0 C-2.52 -4.68, -12.61 -23.42, -15.13 -28.11" stroke="#1e1e1e" stroke-width="2" fill="none"></path></g><g transform="translate(164.31846053798927 448.8856745042159) rotate(0 -7.567280083134619 -14.053520154392828)"><path d="M-3.22 -17.49 C-7.31 -21.13, -11.4 -24.78, -15.13 -28.11 M-3.22 -17.49 C-6.64 -20.54, -10.07 -23.59, -15.13 -28.11" stroke="#1e1e1e" stroke-width="2" fill="none"></path></g><g transform="translate(164.31846053798927 448.8856745042159) rotate(0 -7.567280083134619 -14.053520154392828)"><path d="M-12.83 -12.31 C-13.62 -17.73, -14.41 -23.15, -15.13 -28.11 M-12.83 -12.31 C-13.49 -16.85, -14.15 -21.39, -15.13 -28.11" stroke="#1e1e1e" stroke-width="2" fill="none"></path></g></g><mask></mask><g stroke-linecap="round"><g transform="translate(300.52950203441196 453.2098345517213) rotate(0 0.5405200059381059 -11.891440130640092)"><path d="M0 0 C0.18 -3.96, 0.9 -19.82, 1.08 -23.78 M0 0 C0.18 -3.96, 0.9 -19.82, 1.08 -23.78" stroke="#1e1e1e" stroke-width="2" fill="none"></path></g><g transform="translate(300.52950203441196 453.2098345517213) rotate(0 0.5405200059381059 -11.891440130640092)"><path d="M4.64 -12.42 C3.28 -16.77, 1.92 -21.12, 1.08 -23.78 M4.64 -12.42 C3.67 -15.51, 2.71 -18.6, 1.08 -23.78" stroke="#1e1e1e" stroke-width="2" fill="none"></path></g><g transform="translate(300.52950203441196 453.2098345517213) rotate(0 0.5405200059381059 -11.891440130640092)"><path d="M-3.49 -12.79 C-1.74 -17, 0.01 -21.2, 1.08 -23.78 M-3.49 -12.79 C-2.25 -15.78, -1.01 -18.76, 1.08 -23.78" stroke="#1e1e1e" stroke-width="2" fill="none"></path></g></g><mask></mask><g stroke-linecap="round"><g transform="translate(298.36742201065954 331.05231320969136) rotate(0 0.5405200059381059 -10.269880112825518)"><path d="M0 0 C0.18 -3.42, 0.9 -17.12, 1.08 -20.54 M0 0 C0.18 -3.42, 0.9 -17.12, 1.08 -20.54" stroke="#1e1e1e" stroke-width="2" fill="none"></path></g><g transform="translate(298.36742201065954 331.05231320969136) rotate(0 0.5405200059381059 -10.269880112825518)"><path d="M4.09 -10.7 C3.01 -14.22, 1.94 -17.74, 1.08 -20.54 M4.09 -10.7 C2.97 -14.37, 1.85 -18.03, 1.08 -20.54" stroke="#1e1e1e" stroke-width="2" fill="none"></path></g><g transform="translate(298.36742201065954 331.05231320969136) rotate(0 0.5405200059381059 -10.269880112825518)"><path d="M-2.94 -11.07 C-1.5 -14.46, -0.06 -17.84, 1.08 -20.54 M-2.94 -11.07 C-1.44 -14.6, 0.06 -18.13, 1.08 -20.54" stroke="#1e1e1e" stroke-width="2" fill="none"></path></g></g><mask></mask><g stroke-linecap="round"><g transform="translate(302.6915820581644 211.0568718914143) rotate(0 0 -11.891440130640078)"><path d="M0 0 C0 -3.96, 0 -19.82, 0 -23.78 M0 0 C0 -3.96, 0 -19.82, 0 -23.78" stroke="#f08c00" stroke-width="2" fill="none"></path></g><g transform="translate(302.6915820581644 211.0568718914143) rotate(0 0 -11.891440130640078)"><path d="M4.07 -12.61 C2.81 -16.05, 1.56 -19.5, 0 -23.78 M4.07 -12.61 C2.48 -16.98, 0.88 -21.35, 0 -23.78" stroke="#f08c00" stroke-width="2" fill="none"></path></g><g transform="translate(302.6915820581644 211.0568718914143) rotate(0 0 -11.891440130640078)"><path d="M-4.07 -12.61 C-2.81 -16.05, -1.56 -19.5, 0 -23.78 M-4.07 -12.61 C-2.48 -16.98, -0.88 -21.35, 0 -23.78" stroke="#f08c00" stroke-width="2" fill="none"></path></g></g><mask></mask><g stroke-linecap="round"><g transform="translate(403.22830316266754 338.619593292826) rotate(0 -28.107040308785827 -22.16132024346561)"><path d="M0 0 C-9.37 -7.39, -46.85 -36.94, -56.21 -44.32 M0 0 C-9.37 -7.39, -46.85 -36.94, -56.21 -44.32" stroke="#1e1e1e" stroke-width="2" fill="none"></path></g><g transform="translate(403.22830316266754 338.619593292826) rotate(0 -28.107040308785827 -22.16132024346561)"><path d="M-32.47 -36.49 C-41.81 -39.57, -51.16 -42.65, -56.21 -44.32 M-32.47 -36.49 C-38.9 -38.61, -45.33 -40.73, -56.21 -44.32" stroke="#1e1e1e" stroke-width="2" fill="none"></path></g><g transform="translate(403.22830316266754 338.619593292826) rotate(0 -28.107040308785827 -22.16132024346561)"><path d="M-43.06 -23.06 C-48.24 -31.43, -53.41 -39.79, -56.21 -44.32 M-43.06 -23.06 C-46.62 -28.82, -50.18 -34.58, -56.21 -44.32" stroke="#1e1e1e" stroke-width="2" fill="none"></path></g></g><mask></mask><g transform="translate(11.808250314903944 10) rotate(0 290.8833312988281 28.799999999999997)"><text x="290.8833312988281" y="15.45" font-family="Cascadia, Segoe UI Emoji" font-size="16px" fill="#1e1e1e" text-anchor="middle" style="white-space: pre;" direction="ltr" dominant-baseline="alphabetic">Next update</text><text x="290.8833312988281" y="34.65" font-family="Cascadia, Segoe UI Emoji" font-size="16px" fill="#1e1e1e" text-anchor="middle" style="white-space: pre;" direction="ltr" dominant-baseline="alphabetic">Scan the node graph for invalidated nodes.</text><text x="290.8833312988281" y="53.849999999999994" font-family="Cascadia, Segoe UI Emoji" font-size="16px" fill="#1e1e1e" text-anchor="middle" style="white-space: pre;" direction="ltr" dominant-baseline="alphabetic">Recompute all nodes between the invalidated nodes and the root</text></g></svg>
