<svg version="1.1" xmlns="http://www.w3.org/2000/svg" viewBox="0 0 476.4691444868831 472.2764076258463" width="476.4691444868831" height="472.2764076258463">
  <!-- svg-source:excalidraw -->
  
  <defs>
    <style class="style-fonts">
      @font-face {
        font-family: "Virgil";
        src: url("https://excalidraw.com/Virgil.woff2");
      }
      @font-face {
        font-family: "Cascadia";
        src: url("https://excalidraw.com/Cascadia.woff2");
      }
      @font-face {
        font-family: "Assistant";
        src: url("https://excalidraw.com/Assistant-Regular.woff2");
      }
    </style>
    
  </defs>
  <rect x="0" y="0" width="476.4691444868831" height="472.2764076258463" fill="#ffffff"></rect><g stroke-linecap="round" transform="translate(257.28790142871776 10.000000000000014) rotate(0 43.782120480992944 43.782120480993015)"><path d="M87.56 43.78 C87.56 45.86, 87.41 47.96, 87.12 50.01 C86.82 52.07, 86.38 54.12, 85.79 56.12 C85.21 58.11, 84.47 60.08, 83.61 61.97 C82.74 63.86, 81.74 65.71, 80.61 67.45 C79.49 69.2, 78.23 70.88, 76.87 72.45 C75.51 74.02, 74.02 75.51, 72.45 76.87 C70.88 78.23, 69.2 79.49, 67.45 80.61 C65.71 81.74, 63.86 82.74, 61.97 83.61 C60.08 84.47, 58.11 85.21, 56.12 85.79 C54.12 86.38, 52.07 86.82, 50.01 87.12 C47.96 87.41, 45.86 87.56, 43.78 87.56 C41.71 87.56, 39.61 87.41, 37.55 87.12 C35.5 86.82, 33.44 86.38, 31.45 85.79 C29.45 85.21, 27.48 84.47, 25.59 83.61 C23.71 82.74, 21.86 81.74, 20.11 80.61 C18.36 79.49, 16.68 78.23, 15.11 76.87 C13.54 75.51, 12.05 74.02, 10.69 72.45 C9.33 70.88, 8.07 69.2, 6.95 67.45 C5.83 65.71, 4.82 63.86, 3.96 61.97 C3.09 60.08, 2.36 58.11, 1.77 56.12 C1.19 54.12, 0.74 52.07, 0.45 50.01 C0.15 47.96, 0 45.86, 0 43.78 C0 41.71, 0.15 39.61, 0.45 37.55 C0.74 35.5, 1.19 33.44, 1.77 31.45 C2.36 29.45, 3.09 27.48, 3.96 25.59 C4.82 23.71, 5.83 21.86, 6.95 20.11 C8.07 18.36, 9.33 16.68, 10.69 15.11 C12.05 13.54, 13.54 12.05, 15.11 10.69 C16.68 9.33, 18.36 8.07, 20.11 6.95 C21.86 5.83, 23.71 4.82, 25.59 3.96 C27.48 3.09, 29.45 2.36, 31.45 1.77 C33.44 1.19, 35.5 0.74, 37.55 0.45 C39.61 0.15, 41.71 0, 43.78 0 C45.86 0, 47.96 0.15, 50.01 0.45 C52.07 0.74, 54.12 1.19, 56.12 1.77 C58.11 2.36, 60.08 3.09, 61.97 3.96 C63.86 4.82, 65.71 5.83, 67.45 6.95 C69.2 8.07, 70.88 9.33, 72.45 10.69 C74.02 12.05, 75.51 13.54, 76.87 15.11 C78.23 16.68, 79.49 18.36, 80.61 20.11 C81.74 21.86, 82.74 23.71, 83.61 25.59 C84.47 27.48, 85.21 29.45, 85.79 31.45 C86.38 33.44, 86.82 35.5, 87.12 37.55 C87.41 39.61, 87.49 42.74, 87.56 43.78 C87.64 44.82, 87.64 42.74, 87.56 43.78" stroke="#1e1e1e" stroke-width="2" fill="none"></path></g><g stroke-linecap="round" transform="translate(257.2879016009256 134.7121670748116) rotate(0 43.782120480992944 43.782120480993)"><path d="M87.56 43.78 C87.56 45.86, 87.41 47.96, 87.12 50.01 C86.82 52.07, 86.38 54.12, 85.79 56.12 C85.21 58.11, 84.47 60.08, 83.61 61.97 C82.74 63.86, 81.74 65.71, 80.61 67.45 C79.49 69.2, 78.23 70.88, 76.87 72.45 C75.51 74.02, 74.02 75.51, 72.45 76.87 C70.88 78.23, 69.2 79.49, 67.45 80.61 C65.71 81.74, 63.86 82.74, 61.97 83.61 C60.08 84.47, 58.11 85.21, 56.12 85.79 C54.12 86.38, 52.07 86.82, 50.01 87.12 C47.96 87.41, 45.86 87.56, 43.78 87.56 C41.71 87.56, 39.61 87.41, 37.55 87.12 C35.5 86.82, 33.44 86.38, 31.45 85.79 C29.45 85.21, 27.48 84.47, 25.59 83.61 C23.71 82.74, 21.86 81.74, 20.11 80.61 C18.36 79.49, 16.68 78.23, 15.11 76.87 C13.54 75.51, 12.05 74.02, 10.69 72.45 C9.33 70.88, 8.07 69.2, 6.95 67.45 C5.83 65.71, 4.82 63.86, 3.96 61.97 C3.09 60.08, 2.36 58.11, 1.77 56.12 C1.19 54.12, 0.74 52.07, 0.45 50.01 C0.15 47.96, 0 45.86, 0 43.78 C0 41.71, 0.15 39.61, 0.45 37.55 C0.74 35.5, 1.19 33.44, 1.77 31.45 C2.36 29.45, 3.09 27.48, 3.96 25.59 C4.82 23.71, 5.83 21.86, 6.95 20.11 C8.07 18.36, 9.33 16.68, 10.69 15.11 C12.05 13.54, 13.54 12.05, 15.11 10.69 C16.68 9.33, 18.36 8.07, 20.11 6.95 C21.86 5.83, 23.71 4.82, 25.59 3.96 C27.48 3.09, 29.45 2.36, 31.45 1.77 C33.44 1.19, 35.5 0.74, 37.55 0.45 C39.61 0.15, 41.71 0, 43.78 0 C45.86 0, 47.96 0.15, 50.01 0.45 C52.07 0.74, 54.12 1.19, 56.12 1.77 C58.11 2.36, 60.08 3.09, 61.97 3.96 C63.86 4.82, 65.71 5.83, 67.45 6.95 C69.2 8.07, 70.88 9.33, 72.45 10.69 C74.02 12.05, 75.51 13.54, 76.87 15.11 C78.23 16.68, 79.49 18.36, 80.61 20.11 C81.74 21.86, 82.74 23.71, 83.61 25.59 C84.47 27.48, 85.21 29.45, 85.79 31.45 C86.38 33.44, 86.82 35.5, 87.12 37.55 C87.41 39.61, 87.49 42.74, 87.56 43.78 C87.64 44.82, 87.64 42.74, 87.56 43.78" stroke="#1e1e1e" stroke-width="2" fill="none"></path></g><g stroke-linecap="round" transform="translate(257.2879017078126 254.71216633370688) rotate(0 43.782120480992944 43.782120480993)"><path d="M87.56 43.78 C87.56 45.86, 87.41 47.96, 87.12 50.01 C86.82 52.07, 86.38 54.12, 85.79 56.12 C85.21 58.11, 84.47 60.08, 83.61 61.97 C82.74 63.86, 81.74 65.71, 80.61 67.45 C79.49 69.2, 78.23 70.88, 76.87 72.45 C75.51 74.02, 74.02 75.51, 72.45 76.87 C70.88 78.23, 69.2 79.49, 67.45 80.61 C65.71 81.74, 63.86 82.74, 61.97 83.61 C60.08 84.47, 58.11 85.21, 56.12 85.79 C54.12 86.38, 52.07 86.82, 50.01 87.12 C47.96 87.41, 45.86 87.56, 43.78 87.56 C41.71 87.56, 39.61 87.41, 37.55 87.12 C35.5 86.82, 33.44 86.38, 31.45 85.79 C29.45 85.21, 27.48 84.47, 25.59 83.61 C23.71 82.74, 21.86 81.74, 20.11 80.61 C18.36 79.49, 16.68 78.23, 15.11 76.87 C13.54 75.51, 12.05 74.02, 10.69 72.45 C9.33 70.88, 8.07 69.2, 6.95 67.45 C5.83 65.71, 4.82 63.86, 3.96 61.97 C3.09 60.08, 2.36 58.11, 1.77 56.12 C1.19 54.12, 0.74 52.07, 0.45 50.01 C0.15 47.96, 0 45.86, 0 43.78 C0 41.71, 0.15 39.61, 0.45 37.55 C0.74 35.5, 1.19 33.44, 1.77 31.45 C2.36 29.45, 3.09 27.48, 3.96 25.59 C4.82 23.71, 5.83 21.86, 6.95 20.11 C8.07 18.36, 9.33 16.68, 10.69 15.11 C12.05 13.54, 13.54 12.05, 15.11 10.69 C16.68 9.33, 18.36 8.07, 20.11 6.95 C21.86 5.83, 23.71 4.82, 25.59 3.96 C27.48 3.09, 29.45 2.36, 31.45 1.77 C33.44 1.19, 35.5 0.74, 37.55 0.45 C39.61 0.15, 41.71 0, 43.78 0 C45.86 0, 47.96 0.15, 50.01 0.45 C52.07 0.74, 54.12 1.19, 56.12 1.77 C58.11 2.36, 60.08 3.09, 61.97 3.96 C63.86 4.82, 65.71 5.83, 67.45 6.95 C69.2 8.07, 70.88 9.33, 72.45 10.69 C74.02 12.05, 75.51 13.54, 76.87 15.11 C78.23 16.68, 79.49 18.36, 80.61 20.11 C81.74 21.86, 82.74 23.71, 83.61 25.59 C84.47 27.48, 85.21 29.45, 85.79 31.45 C86.38 33.44, 86.82 35.5, 87.12 37.55 C87.41 39.61, 87.49 42.74, 87.56 43.78 C87.64 44.82, 87.64 42.74, 87.56 43.78" stroke="#1e1e1e" stroke-width="2" fill="none"></path></g><g stroke-linecap="round" transform="translate(257.28790183845285 374.7121666638602) rotate(0 43.782120480992944 43.78212048099303)"><path d="M87.56 43.78 C87.56 45.86, 87.41 47.96, 87.12 50.01 C86.82 52.07, 86.38 54.12, 85.79 56.12 C85.21 58.11, 84.47 60.08, 83.61 61.97 C82.74 63.86, 81.74 65.71, 80.61 67.45 C79.49 69.2, 78.23 70.88, 76.87 72.45 C75.51 74.02, 74.02 75.51, 72.45 76.87 C70.88 78.23, 69.2 79.49, 67.45 80.61 C65.71 81.74, 63.86 82.74, 61.97 83.61 C60.08 84.47, 58.11 85.21, 56.12 85.79 C54.12 86.38, 52.07 86.82, 50.01 87.12 C47.96 87.41, 45.86 87.56, 43.78 87.56 C41.71 87.56, 39.61 87.41, 37.55 87.12 C35.5 86.82, 33.44 86.38, 31.45 85.79 C29.45 85.21, 27.48 84.47, 25.59 83.61 C23.71 82.74, 21.86 81.74, 20.11 80.61 C18.36 79.49, 16.68 78.23, 15.11 76.87 C13.54 75.51, 12.05 74.02, 10.69 72.45 C9.33 70.88, 8.07 69.2, 6.95 67.45 C5.83 65.71, 4.82 63.86, 3.96 61.97 C3.09 60.08, 2.36 58.11, 1.77 56.12 C1.19 54.12, 0.74 52.07, 0.45 50.01 C0.15 47.96, 0 45.86, 0 43.78 C0 41.71, 0.15 39.61, 0.45 37.55 C0.74 35.5, 1.19 33.44, 1.77 31.45 C2.36 29.45, 3.09 27.48, 3.96 25.59 C4.82 23.71, 5.83 21.86, 6.95 20.11 C8.07 18.36, 9.33 16.68, 10.69 15.11 C12.05 13.54, 13.54 12.05, 15.11 10.69 C16.68 9.33, 18.36 8.07, 20.11 6.95 C21.86 5.83, 23.71 4.82, 25.59 3.96 C27.48 3.09, 29.45 2.36, 31.45 1.77 C33.44 1.19, 35.5 0.74, 37.55 0.45 C39.61 0.15, 41.71 0, 43.78 0 C45.86 0, 47.96 0.15, 50.01 0.45 C52.07 0.74, 54.12 1.19, 56.12 1.77 C58.11 2.36, 60.08 3.09, 61.97 3.96 C63.86 4.82, 65.71 5.83, 67.45 6.95 C69.2 8.07, 70.88 9.33, 72.45 10.69 C74.02 12.05, 75.51 13.54, 76.87 15.11 C78.23 16.68, 79.49 18.36, 80.61 20.11 C81.74 21.86, 82.74 23.71, 83.61 25.59 C84.47 27.48, 85.21 29.45, 85.79 31.45 C86.38 33.44, 86.82 35.5, 87.12 37.55 C87.41 39.61, 87.49 42.74, 87.56 43.78 C87.64 44.82, 87.64 42.74, 87.56 43.78" stroke="#1e1e1e" stroke-width="2" fill="none"></path></g><g stroke-linecap="round" transform="translate(378.90490352489724 254.7121672624486) rotate(0 43.782120480992944 43.78212048099303)"><path d="M87.56 43.78 C87.56 45.86, 87.41 47.96, 87.12 50.01 C86.82 52.07, 86.38 54.12, 85.79 56.12 C85.21 58.11, 84.47 60.08, 83.61 61.97 C82.74 63.86, 81.74 65.71, 80.61 67.45 C79.49 69.2, 78.23 70.88, 76.87 72.45 C75.51 74.02, 74.02 75.51, 72.45 76.87 C70.88 78.23, 69.2 79.49, 67.45 80.61 C65.71 81.74, 63.86 82.74, 61.97 83.61 C60.08 84.47, 58.11 85.21, 56.12 85.79 C54.12 86.38, 52.07 86.82, 50.01 87.12 C47.96 87.41, 45.86 87.56, 43.78 87.56 C41.71 87.56, 39.61 87.41, 37.55 87.12 C35.5 86.82, 33.44 86.38, 31.45 85.79 C29.45 85.21, 27.48 84.47, 25.59 83.61 C23.71 82.74, 21.86 81.74, 20.11 80.61 C18.36 79.49, 16.68 78.23, 15.11 76.87 C13.54 75.51, 12.05 74.02, 10.69 72.45 C9.33 70.88, 8.07 69.2, 6.95 67.45 C5.83 65.71, 4.82 63.86, 3.96 61.97 C3.09 60.08, 2.36 58.11, 1.77 56.12 C1.19 54.12, 0.74 52.07, 0.45 50.01 C0.15 47.96, 0 45.86, 0 43.78 C0 41.71, 0.15 39.61, 0.45 37.55 C0.74 35.5, 1.19 33.44, 1.77 31.45 C2.36 29.45, 3.09 27.48, 3.96 25.59 C4.82 23.71, 5.83 21.86, 6.95 20.11 C8.07 18.36, 9.33 16.68, 10.69 15.11 C12.05 13.54, 13.54 12.05, 15.11 10.69 C16.68 9.33, 18.36 8.07, 20.11 6.95 C21.86 5.83, 23.71 4.82, 25.59 3.96 C27.48 3.09, 29.45 2.36, 31.45 1.77 C33.44 1.19, 35.5 0.74, 37.55 0.45 C39.61 0.15, 41.71 0, 43.78 0 C45.86 0, 47.96 0.15, 50.01 0.45 C52.07 0.74, 54.12 1.19, 56.12 1.77 C58.11 2.36, 60.08 3.09, 61.97 3.96 C63.86 4.82, 65.71 5.83, 67.45 6.95 C69.2 8.07, 70.88 9.33, 72.45 10.69 C74.02 12.05, 75.51 13.54, 76.87 15.11 C78.23 16.68, 79.49 18.36, 80.61 20.11 C81.74 21.86, 82.74 23.71, 83.61 25.59 C84.47 27.48, 85.21 29.45, 85.79 31.45 C86.38 33.44, 86.82 35.5, 87.12 37.55 C87.41 39.61, 87.49 42.74, 87.56 43.78 C87.64 44.82, 87.64 42.74, 87.56 43.78" stroke="#1e1e1e" stroke-width="2" fill="none"></path></g><g stroke-linecap="round" transform="translate(133.64395104512096 374.71216598690734) rotate(0 43.782120480992944 43.782120480993)"><path d="M87.56 43.78 C87.56 45.86, 87.41 47.96, 87.12 50.01 C86.82 52.07, 86.38 54.12, 85.79 56.12 C85.21 58.11, 84.47 60.08, 83.61 61.97 C82.74 63.86, 81.74 65.71, 80.61 67.45 C79.49 69.2, 78.23 70.88, 76.87 72.45 C75.51 74.02, 74.02 75.51, 72.45 76.87 C70.88 78.23, 69.2 79.49, 67.45 80.61 C65.71 81.74, 63.86 82.74, 61.97 83.61 C60.08 84.47, 58.11 85.21, 56.12 85.79 C54.12 86.38, 52.07 86.82, 50.01 87.12 C47.96 87.41, 45.86 87.56, 43.78 87.56 C41.71 87.56, 39.61 87.41, 37.55 87.12 C35.5 86.82, 33.44 86.38, 31.45 85.79 C29.45 85.21, 27.48 84.47, 25.59 83.61 C23.71 82.74, 21.86 81.74, 20.11 80.61 C18.36 79.49, 16.68 78.23, 15.11 76.87 C13.54 75.51, 12.05 74.02, 10.69 72.45 C9.33 70.88, 8.07 69.2, 6.95 67.45 C5.83 65.71, 4.82 63.86, 3.96 61.97 C3.09 60.08, 2.36 58.11, 1.77 56.12 C1.19 54.12, 0.74 52.07, 0.45 50.01 C0.15 47.96, 0 45.86, 0 43.78 C0 41.71, 0.15 39.61, 0.45 37.55 C0.74 35.5, 1.19 33.44, 1.77 31.45 C2.36 29.45, 3.09 27.48, 3.96 25.59 C4.82 23.71, 5.83 21.86, 6.95 20.11 C8.07 18.36, 9.33 16.68, 10.69 15.11 C12.05 13.54, 13.54 12.05, 15.11 10.69 C16.68 9.33, 18.36 8.07, 20.11 6.95 C21.86 5.83, 23.71 4.82, 25.59 3.96 C27.48 3.09, 29.45 2.36, 31.45 1.77 C33.44 1.19, 35.5 0.74, 37.55 0.45 C39.61 0.15, 41.71 0, 43.78 0 C45.86 0, 47.96 0.15, 50.01 0.45 C52.07 0.74, 54.12 1.19, 56.12 1.77 C58.11 2.36, 60.08 3.09, 61.97 3.96 C63.86 4.82, 65.71 5.83, 67.45 6.95 C69.2 8.07, 70.88 9.33, 72.45 10.69 C74.02 12.05, 75.51 13.54, 76.87 15.11 C78.23 16.68, 79.49 18.36, 80.61 20.11 C81.74 21.86, 82.74 23.71, 83.61 25.59 C84.47 27.48, 85.21 29.45, 85.79 31.45 C86.38 33.44, 86.82 35.5, 87.12 37.55 C87.41 39.61, 87.49 42.74, 87.56 43.78 C87.64 44.82, 87.64 42.74, 87.56 43.78" stroke="#1e1e1e" stroke-width="2" fill="none"></path></g><g stroke-linecap="round" transform="translate(10.000000000000227 374.71216647145343) rotate(0 43.78212048099306 43.78212048099303)"><path d="M87.56 43.78 C87.56 45.86, 87.41 47.96, 87.12 50.01 C86.82 52.07, 86.38 54.12, 85.79 56.12 C85.21 58.11, 84.47 60.08, 83.61 61.97 C82.74 63.86, 81.74 65.71, 80.61 67.45 C79.49 69.2, 78.23 70.88, 76.87 72.45 C75.51 74.02, 74.02 75.51, 72.45 76.87 C70.88 78.23, 69.2 79.49, 67.45 80.61 C65.71 81.74, 63.86 82.74, 61.97 83.61 C60.08 84.47, 58.11 85.21, 56.12 85.79 C54.12 86.38, 52.07 86.82, 50.01 87.12 C47.96 87.41, 45.86 87.56, 43.78 87.56 C41.71 87.56, 39.61 87.41, 37.55 87.12 C35.5 86.82, 33.44 86.38, 31.45 85.79 C29.45 85.21, 27.48 84.47, 25.59 83.61 C23.71 82.74, 21.86 81.74, 20.11 80.61 C18.36 79.49, 16.68 78.23, 15.11 76.87 C13.54 75.51, 12.05 74.02, 10.69 72.45 C9.33 70.88, 8.07 69.2, 6.95 67.45 C5.83 65.71, 4.82 63.86, 3.96 61.97 C3.09 60.08, 2.36 58.11, 1.77 56.12 C1.19 54.12, 0.74 52.07, 0.45 50.01 C0.15 47.96, 0 45.86, 0 43.78 C0 41.71, 0.15 39.61, 0.45 37.55 C0.74 35.5, 1.19 33.44, 1.77 31.45 C2.36 29.45, 3.09 27.48, 3.96 25.59 C4.82 23.71, 5.83 21.86, 6.95 20.11 C8.07 18.36, 9.33 16.68, 10.69 15.11 C12.05 13.54, 13.54 12.05, 15.11 10.69 C16.68 9.33, 18.36 8.07, 20.11 6.95 C21.86 5.83, 23.71 4.82, 25.59 3.96 C27.48 3.09, 29.45 2.36, 31.45 1.77 C33.44 1.19, 35.5 0.74, 37.55 0.45 C39.61 0.15, 41.71 0, 43.78 0 C45.86 0, 47.96 0.15, 50.01 0.45 C52.07 0.74, 54.12 1.19, 56.12 1.77 C58.11 2.36, 60.08 3.09, 61.97 3.96 C63.86 4.82, 65.71 5.83, 67.45 6.95 C69.2 8.07, 70.88 9.33, 72.45 10.69 C74.02 12.05, 75.51 13.54, 76.87 15.11 C78.23 16.68, 79.49 18.36, 80.61 20.11 C81.74 21.86, 82.74 23.71, 83.61 25.59 C84.47 27.48, 85.21 29.45, 85.79 31.45 C86.38 33.44, 86.82 35.5, 87.12 37.55 C87.41 39.61, 87.49 42.74, 87.56 43.78 C87.64 44.82, 87.64 42.74, 87.56 43.78" stroke="#1e1e1e" stroke-width="2" fill="none"></path></g><g stroke-linecap="round" transform="translate(71.61928144891795 254.7121666092483) rotate(0 43.78212048099306 43.782120480993)"><path d="M87.56 43.78 C87.56 45.86, 87.41 47.96, 87.12 50.01 C86.82 52.07, 86.38 54.12, 85.79 56.12 C85.21 58.11, 84.47 60.08, 83.61 61.97 C82.74 63.86, 81.74 65.71, 80.61 67.45 C79.49 69.2, 78.23 70.88, 76.87 72.45 C75.51 74.02, 74.02 75.51, 72.45 76.87 C70.88 78.23, 69.2 79.49, 67.45 80.61 C65.71 81.74, 63.86 82.74, 61.97 83.61 C60.08 84.47, 58.11 85.21, 56.12 85.79 C54.12 86.38, 52.07 86.82, 50.01 87.12 C47.96 87.41, 45.86 87.56, 43.78 87.56 C41.71 87.56, 39.61 87.41, 37.55 87.12 C35.5 86.82, 33.44 86.38, 31.45 85.79 C29.45 85.21, 27.48 84.47, 25.59 83.61 C23.71 82.74, 21.86 81.74, 20.11 80.61 C18.36 79.49, 16.68 78.23, 15.11 76.87 C13.54 75.51, 12.05 74.02, 10.69 72.45 C9.33 70.88, 8.07 69.2, 6.95 67.45 C5.83 65.71, 4.82 63.86, 3.96 61.97 C3.09 60.08, 2.36 58.11, 1.77 56.12 C1.19 54.12, 0.74 52.07, 0.45 50.01 C0.15 47.96, 0 45.86, 0 43.78 C0 41.71, 0.15 39.61, 0.45 37.55 C0.74 35.5, 1.19 33.44, 1.77 31.45 C2.36 29.45, 3.09 27.48, 3.96 25.59 C4.82 23.71, 5.83 21.86, 6.95 20.11 C8.07 18.36, 9.33 16.68, 10.69 15.11 C12.05 13.54, 13.54 12.05, 15.11 10.69 C16.68 9.33, 18.36 8.07, 20.11 6.95 C21.86 5.83, 23.71 4.82, 25.59 3.96 C27.48 3.09, 29.45 2.36, 31.45 1.77 C33.44 1.19, 35.5 0.74, 37.55 0.45 C39.61 0.15, 41.71 0, 43.78 0 C45.86 0, 47.96 0.15, 50.01 0.45 C52.07 0.74, 54.12 1.19, 56.12 1.77 C58.11 2.36, 60.08 3.09, 61.97 3.96 C63.86 4.82, 65.71 5.83, 67.45 6.95 C69.2 8.07, 70.88 9.33, 72.45 10.69 C74.02 12.05, 75.51 13.54, 76.87 15.11 C78.23 16.68, 79.49 18.36, 80.61 20.11 C81.74 21.86, 82.74 23.71, 83.61 25.59 C84.47 27.48, 85.21 29.45, 85.79 31.45 C86.38 33.44, 86.82 35.5, 87.12 37.55 C87.41 39.61, 87.49 42.74, 87.56 43.78 C87.64 44.82, 87.64 42.74, 87.56 43.78" stroke="#1e1e1e" stroke-width="2" fill="none"></path></g><g stroke-linecap="round"><g transform="translate(115.67166000355337 247.82880282657618) rotate(0 63.78136070070582 -33.512240368167454)"><path d="M0 0 C8.29 -8.29, 28.47 -38.56, 49.73 -49.73 C70.99 -60.9, 114.59 -64.14, 127.56 -67.02 M0 0 C8.29 -8.29, 28.47 -38.56, 49.73 -49.73 C70.99 -60.9, 114.59 -64.14, 127.56 -67.02" stroke="#1e1e1e" stroke-width="2" fill="none"></path></g><g transform="translate(115.67166000355337 247.82880282657618) rotate(0 63.78136070070582 -33.512240368167454)"><path d="M105.67 -54.95 C111.03 -57.9, 116.39 -60.86, 127.56 -67.02 M105.67 -54.95 C113.4 -59.21, 121.12 -63.47, 127.56 -67.02" stroke="#1e1e1e" stroke-width="2" fill="none"></path></g><g transform="translate(115.67166000355337 247.82880282657618) rotate(0 63.78136070070582 -33.512240368167454)"><path d="M103.03 -71.84 C109.03 -70.66, 115.04 -69.48, 127.56 -67.02 M103.03 -71.84 C111.69 -70.14, 120.34 -68.44, 127.56 -67.02" stroke="#1e1e1e" stroke-width="2" fill="none"></path></g></g><mask></mask><g stroke-linecap="round"><g transform="translate(59.45757938598217 368.90528415672975) rotate(0 9.188840100949164 -17.296640190021918)"><path d="M0 0 C3.06 -5.77, 15.31 -28.83, 18.38 -34.59 M0 0 C3.06 -5.77, 15.31 -28.83, 18.38 -34.59" stroke="#1e1e1e" stroke-width="2" fill="none"></path></g><g transform="translate(59.45757938598217 368.90528415672975) rotate(0 9.188840100949164 -17.296640190021918)"><path d="M15.66 -15.2 C16.46 -20.91, 17.26 -26.63, 18.38 -34.59 M15.66 -15.2 C16.4 -20.46, 17.14 -25.73, 18.38 -34.59" stroke="#1e1e1e" stroke-width="2" fill="none"></path></g><g transform="translate(59.45757938598217 368.90528415672975) rotate(0 9.188840100949164 -17.296640190021918)"><path d="M3.83 -21.48 C8.11 -25.35, 12.4 -29.21, 18.38 -34.59 M3.83 -21.48 C7.78 -25.04, 11.73 -28.6, 18.38 -34.59" stroke="#1e1e1e" stroke-width="2" fill="none"></path></g></g><mask></mask><g stroke-linecap="round"><g transform="translate(164.31846053799018 364.5811241092243) rotate(0 -7.567280083134619 -14.053520154392828)"><path d="M0 0 C-2.52 -4.68, -12.61 -23.42, -15.13 -28.11 M0 0 C-2.52 -4.68, -12.61 -23.42, -15.13 -28.11" stroke="#1e1e1e" stroke-width="2" fill="none"></path></g><g transform="translate(164.31846053799018 364.5811241092243) rotate(0 -7.567280083134619 -14.053520154392828)"><path d="M-3.22 -17.49 C-7.5 -21.3, -11.78 -25.12, -15.13 -28.11 M-3.22 -17.49 C-7.86 -21.63, -12.51 -25.77, -15.13 -28.11" stroke="#1e1e1e" stroke-width="2" fill="none"></path></g><g transform="translate(164.31846053799018 364.5811241092243) rotate(0 -7.567280083134619 -14.053520154392828)"><path d="M-12.83 -12.31 C-13.66 -17.99, -14.49 -23.66, -15.13 -28.11 M-12.83 -12.31 C-13.73 -18.47, -14.63 -24.62, -15.13 -28.11" stroke="#1e1e1e" stroke-width="2" fill="none"></path></g></g><mask></mask><g stroke-linecap="round"><g transform="translate(300.5295020344129 368.90528415672975) rotate(0 0.5405200059381059 -11.891440130640092)"><path d="M0 0 C0.18 -3.96, 0.9 -19.82, 1.08 -23.78 M0 0 C0.18 -3.96, 0.9 -19.82, 1.08 -23.78" stroke="#1e1e1e" stroke-width="2" fill="none"></path></g><g transform="translate(300.5295020344129 368.90528415672975) rotate(0 0.5405200059381059 -11.891440130640092)"><path d="M4.64 -12.42 C3.57 -15.83, 2.5 -19.24, 1.08 -23.78 M4.64 -12.42 C3.61 -15.73, 2.57 -19.03, 1.08 -23.78" stroke="#1e1e1e" stroke-width="2" fill="none"></path></g><g transform="translate(300.5295020344129 368.90528415672975) rotate(0 0.5405200059381059 -11.891440130640092)"><path d="M-3.49 -12.79 C-2.12 -16.09, -0.75 -19.39, 1.08 -23.78 M-3.49 -12.79 C-2.16 -15.99, -0.83 -19.19, 1.08 -23.78" stroke="#1e1e1e" stroke-width="2" fill="none"></path></g></g><mask></mask><g stroke-linecap="round"><g transform="translate(298.36742201066 246.74776281469985) rotate(0 0.5405200059381059 -10.269880112825518)"><path d="M0 0 C0.18 -3.42, 0.9 -17.12, 1.08 -20.54 M0 0 C0.18 -3.42, 0.9 -17.12, 1.08 -20.54" stroke="#1e1e1e" stroke-width="2" fill="none"></path></g><g transform="translate(298.36742201066 246.74776281469985) rotate(0 0.5405200059381059 -10.269880112825518)"><path d="M4.09 -10.7 C3.22 -13.55, 2.35 -16.39, 1.08 -20.54 M4.09 -10.7 C2.94 -14.44, 1.8 -18.18, 1.08 -20.54" stroke="#1e1e1e" stroke-width="2" fill="none"></path></g><g transform="translate(298.36742201066 246.74776281469985) rotate(0 0.5405200059381059 -10.269880112825518)"><path d="M-2.94 -11.07 C-1.78 -13.81, -0.62 -16.55, 1.08 -20.54 M-2.94 -11.07 C-1.41 -14.67, 0.12 -18.27, 1.08 -20.54" stroke="#1e1e1e" stroke-width="2" fill="none"></path></g></g><mask></mask><g stroke-linecap="round"><g transform="translate(302.6915820581653 126.75232149642277) rotate(0 0 -11.891440130640078)"><path d="M0 0 C0 -3.96, 0 -19.82, 0 -23.78 M0 0 C0 -3.96, 0 -19.82, 0 -23.78" stroke="#1e1e1e" stroke-width="2" fill="none"></path></g><g transform="translate(302.6915820581653 126.75232149642277) rotate(0 0 -11.891440130640078)"><path d="M4.07 -12.61 C2.56 -16.75, 1.06 -20.88, 0 -23.78 M4.07 -12.61 C2.79 -16.13, 1.51 -19.65, 0 -23.78" stroke="#1e1e1e" stroke-width="2" fill="none"></path></g><g transform="translate(302.6915820581653 126.75232149642277) rotate(0 0 -11.891440130640078)"><path d="M-4.07 -12.61 C-2.56 -16.75, -1.06 -20.88, 0 -23.78 M-4.07 -12.61 C-2.79 -16.13, -1.51 -19.65, 0 -23.78" stroke="#1e1e1e" stroke-width="2" fill="none"></path></g></g><mask></mask><g stroke-linecap="round"><g transform="translate(403.228303162668 254.31504289783447) rotate(0 -28.107040308785827 -22.16132024346561)"><path d="M0 0 C-9.37 -7.39, -46.85 -36.94, -56.21 -44.32 M0 0 C-9.37 -7.39, -46.85 -36.94, -56.21 -44.32" stroke="#1e1e1e" stroke-width="2" fill="none"></path></g><g transform="translate(403.228303162668 254.31504289783447) rotate(0 -28.107040308785827 -22.16132024346561)"><path d="M-32.47 -36.49 C-37.27 -38.08, -42.08 -39.66, -56.21 -44.32 M-32.47 -36.49 C-41.51 -39.47, -50.54 -42.45, -56.21 -44.32" stroke="#1e1e1e" stroke-width="2" fill="none"></path></g><g transform="translate(403.228303162668 254.31504289783447) rotate(0 -28.107040308785827 -22.16132024346561)"><path d="M-43.06 -23.06 C-45.72 -27.36, -48.38 -31.66, -56.21 -44.32 M-43.06 -23.06 C-48.07 -31.15, -53.07 -39.24, -56.21 -44.32" stroke="#1e1e1e" stroke-width="2" fill="none"></path></g></g><mask></mask></svg>